<svg width="40" height="35" viewBox="0 0 40 35" fill="none" xmlns="http://www.w3.org/2000/svg">
<rect x="1.25" y="12.5" width="1.875" height="20" fill="#142344"/>
<rect x="36.875" y="12.5" width="1.875" height="20" fill="#142344"/>
<rect y="10" width="40" height="1.875" rx="0.625" fill="#142344"/>
<rect x="3.75" y="12.5" width="32.5" height="1.25" fill="#142344"/>
<rect x="3.75" y="13.75" width="32.5" height="1.875" fill="#142344"/>
<path d="M1.25 33.125H3.125L4.375 35H0L1.25 33.125Z" fill="#142344"/>
<path d="M10.0893 33.75H11.1607L11.875 35H9.375L10.0893 33.75Z" fill="#142344"/>
<path d="M28.8393 33.75H29.9107L30.625 35H28.125L28.8393 33.75Z" fill="#142344"/>
<path d="M36.875 33.125H38.75L40 35H35.625L36.875 33.125Z" fill="#142344"/>
<path d="M10 1.875C10 0.839466 10.8395 0 11.875 0H28.125C29.1605 0 30 0.839466 30 1.875V6.25C30 6.59518 29.7202 6.875 29.375 6.875H10.625C10.2798 6.875 10 6.59518 10 6.25V1.875Z" fill="#142344"/>
<rect x="11.25" y="7.5" width="1.25" height="1.875" fill="#142344"/>
<rect x="27.5" y="7.5" width="1.25" height="1.875" fill="#142344"/>
<rect x="11.25" y="16.25" width="1.25" height="1.875" fill="#142344"/>
<rect x="27.5" y="16.25" width="1.25" height="1.875" fill="#142344"/>
<rect x="9.375" y="18.75" width="21.25" height="5" rx="0.625" fill="#142344"/>
<rect width="1.25" height="8.75" transform="matrix(-1 0 0 1 11.25 24.375)" fill="#142344"/>
<rect width="1.25" height="8.75" transform="matrix(-1 0 0 1 30 24.375)" fill="#142344"/>
</svg>
