<svg width="198" height="255" viewBox="0 0 198 255" fill="none" xmlns="http://www.w3.org/2000/svg">
<path d="M174.175 106.019V100.98L135.191 20.0943V5.77358H130.417V1H80.5598V10.8124H75.7862V11.8732H70.217V11.0776H45.5535V20.8899H35.4759V41.0451H25.3983V62.261H20.6247V64.3826H22.4811V65.9738H24.3375L25.1331 67.0346L22.4811 68.0954L20.6247 66.7694V70.7474H18.5031V68.0954H15.3208V60.6698H13.7296V58.0178H11.608V54.5702L8.42558 50.5922H1L4.18239 58.5482L11.608 64.3826V73.3994L15.8512 77.3774V80.8249H10.5472V90.3721H20.6247V92.7589L22.2159 91.4329L23.5419 92.7589H24.8679V90.6373H35.7411V140.76H75.7862V150.572C69.4214 147.39 66.239 148.362 65.4434 149.246V157.202H70.4822L75.7862 160.65V200.165H46.0839V220.585L75.7862 220.32L75.521 222.972H83.2117V225.358H86.9245L85.8637 221.911L87.7201 220.585H95.9413V239.944H100.98V242.596H103.102V247.635L106.019 245.514V250.287L147.125 250.818L148.716 245.514L151.103 244.718C154.285 245.991 155.611 251.436 155.876 254L157.998 253.735L160.385 249.226C163.143 246.468 167.545 247.193 169.401 247.9L176.297 246.044L180.275 242.066H187.435L189.026 243.392H196.717V200.165H183.987V195.921H189.291L189.026 183.987L191.678 185.579H194.065V160.65H174.175V135.721H194.065V106.019H174.175Z" fill="#142344" stroke="white" stroke-width="1.0608"/>
<path d="M135.191 32.0282V20.6246H174.175V71.0125V100.45H170.993V107.875L164.098 115.301V111.323H159.854L156.672 109.466L154.55 111.323H142.086C139.752 113.444 137.224 115.212 136.252 115.831L128.826 113.975L124.583 100.98V95.4108C124.141 94.5268 122.833 92.2814 121.135 90.372C119.438 88.4626 119.19 83.3884 119.279 81.09L116.892 75.5209V56.9569L135.191 32.0282Z" fill="#F5D810"/>
<path d="M119.279 81.09L116.892 75.5209V56.9569L135.191 32.0282V20.6246H174.175V71.0125M119.279 81.09H123.787L126.97 83.742H135.191L141.556 81.09H164.098V71.0125H174.175M119.279 81.09C119.19 83.3884 119.438 88.4626 121.135 90.372C122.833 92.2814 124.141 94.5268 124.583 95.4108V100.98L128.826 113.975L136.252 115.831C137.224 115.212 139.752 113.444 142.086 111.323H154.55L156.672 109.466L159.854 111.323H164.098V115.301L170.993 107.875V100.45H174.175V71.0125" stroke="white" stroke-width="1.0608"/>
<path d="M144.421 49.3029L143.297 53.6142H142.026L141.338 50.7769L140.625 53.6142H139.354L138.261 49.3029H139.385L140.005 52.4412L140.773 49.3029H141.927L142.664 52.4412L143.291 49.3029H144.421ZM144.739 51.8946C144.739 51.5425 144.804 51.2334 144.935 50.9673C145.07 50.7011 145.253 50.4964 145.482 50.3531C145.711 50.2098 145.967 50.1382 146.25 50.1382C146.491 50.1382 146.702 50.1873 146.882 50.2856C147.066 50.3838 147.208 50.5128 147.306 50.6725V50.1873H148.356V53.6142H147.306V53.1291C147.203 53.2887 147.06 53.4177 146.876 53.516C146.696 53.6142 146.485 53.6634 146.243 53.6634C145.965 53.6634 145.711 53.5917 145.482 53.4484C145.253 53.301 145.07 53.0943 144.935 52.8281C144.804 52.5579 144.739 52.2467 144.739 51.8946ZM147.306 51.9008C147.306 51.6387 147.232 51.432 147.085 51.2805C146.941 51.129 146.765 51.0533 146.557 51.0533C146.348 51.0533 146.17 51.129 146.022 51.2805C145.879 51.4279 145.807 51.6326 145.807 51.8946C145.807 52.1567 145.879 52.3655 146.022 52.5211C146.17 52.6726 146.348 52.7483 146.557 52.7483C146.765 52.7483 146.941 52.6726 147.085 52.5211C147.232 52.3696 147.306 52.1628 147.306 51.9008ZM150.166 50.7585C150.289 50.5701 150.442 50.4227 150.627 50.3163C150.811 50.2057 151.016 50.1505 151.241 50.1505V51.2621H150.952C150.69 51.2621 150.494 51.3194 150.363 51.434C150.231 51.5446 150.166 51.7411 150.166 52.0236V53.6142H149.116V50.1873H150.166V50.7585ZM151.534 51.8946C151.534 51.5425 151.599 51.2334 151.73 50.9673C151.866 50.7011 152.048 50.4964 152.277 50.3531C152.506 50.2098 152.762 50.1382 153.045 50.1382C153.27 50.1382 153.475 50.1853 153.659 50.2794C153.847 50.3736 153.995 50.5005 154.101 50.6602V49.0696H155.151V53.6142H154.101V53.1229C154.003 53.2867 153.862 53.4177 153.677 53.516C153.497 53.6142 153.286 53.6634 153.045 53.6634C152.762 53.6634 152.506 53.5917 152.277 53.4484C152.048 53.301 151.866 53.0943 151.73 52.8281C151.599 52.5579 151.534 52.2467 151.534 51.8946ZM154.101 51.9008C154.101 51.6387 154.027 51.432 153.88 51.2805C153.737 51.129 153.561 51.0533 153.352 51.0533C153.143 51.0533 152.965 51.129 152.817 51.2805C152.674 51.4279 152.603 51.6326 152.603 51.8946C152.603 52.1567 152.674 52.3655 152.817 52.5211C152.965 52.6726 153.143 52.7483 153.352 52.7483C153.561 52.7483 153.737 52.6726 153.88 52.5211C154.027 52.3696 154.101 52.1628 154.101 51.9008ZM160.265 50.0461H158.349V50.8936C158.43 50.8035 158.545 50.7298 158.693 50.6725C158.84 50.6152 159 50.5865 159.172 50.5865C159.479 50.5865 159.732 50.6561 159.933 50.7953C160.138 50.9345 160.287 51.1147 160.381 51.3358C160.476 51.5569 160.523 51.7964 160.523 52.0543C160.523 52.5333 160.388 52.9141 160.117 53.1966C159.847 53.475 159.466 53.6142 158.975 53.6142C158.647 53.6142 158.363 53.559 158.121 53.4484C157.88 53.3338 157.694 53.1762 157.562 52.9755C157.431 52.7749 157.36 52.5436 157.348 52.2815H158.373C158.398 52.4085 158.457 52.5149 158.551 52.6009C158.645 52.6828 158.774 52.7237 158.938 52.7237C159.131 52.7237 159.274 52.6623 159.368 52.5395C159.462 52.4167 159.509 52.2529 159.509 52.0482C159.509 51.8476 159.46 51.694 159.362 51.5876C159.264 51.4811 159.12 51.4279 158.932 51.4279C158.793 51.4279 158.678 51.4627 158.588 51.5323C158.498 51.5978 158.439 51.6858 158.41 51.7964H157.397V49.1248H160.265V50.0461Z" fill="#142344"/>
<path d="M142.83 93.326L141.706 97.6373H140.435L139.747 94.7999L139.035 97.6373H137.763L136.67 93.326H137.794L138.414 96.4643L139.182 93.326H140.337L141.074 96.4643L141.7 93.326H142.83ZM143.148 95.9177C143.148 95.5656 143.213 95.2565 143.344 94.9903C143.48 94.7242 143.662 94.5195 143.891 94.3762C144.12 94.2329 144.376 94.1612 144.659 94.1612C144.9 94.1612 145.111 94.2104 145.291 94.3086C145.475 94.4069 145.617 94.5359 145.715 94.6955V94.2104H146.765V97.6373H145.715V97.1521C145.613 97.3118 145.469 97.4408 145.285 97.539C145.105 97.6373 144.894 97.6864 144.653 97.6864C144.374 97.6864 144.12 97.6148 143.891 97.4715C143.662 97.3241 143.48 97.1173 143.344 96.8512C143.213 96.581 143.148 96.2698 143.148 95.9177ZM145.715 95.9238C145.715 95.6618 145.641 95.455 145.494 95.3035C145.351 95.1521 145.175 95.0763 144.966 95.0763C144.757 95.0763 144.579 95.1521 144.431 95.3035C144.288 95.4509 144.216 95.6557 144.216 95.9177C144.216 96.1797 144.288 96.3885 144.431 96.5441C144.579 96.6956 144.757 96.7714 144.966 96.7714C145.175 96.7714 145.351 96.6956 145.494 96.5441C145.641 96.3926 145.715 96.1859 145.715 95.9238ZM148.575 94.7815C148.698 94.5932 148.852 94.4458 149.036 94.3393C149.22 94.2288 149.425 94.1735 149.65 94.1735V95.2851H149.361C149.099 95.2851 148.903 95.3424 148.772 95.4571C148.641 95.5676 148.575 95.7642 148.575 96.0467V97.6373H147.525V94.2104H148.575V94.7815ZM149.943 95.9177C149.943 95.5656 150.009 95.2565 150.14 94.9903C150.275 94.7242 150.457 94.5195 150.686 94.3762C150.915 94.2329 151.171 94.1612 151.454 94.1612C151.679 94.1612 151.884 94.2083 152.068 94.3025C152.256 94.3967 152.404 94.5236 152.51 94.6833V93.0926H153.56V97.6373H152.51V97.146C152.412 97.3098 152.271 97.4408 152.086 97.539C151.906 97.6373 151.695 97.6864 151.454 97.6864C151.171 97.6864 150.915 97.6148 150.686 97.4715C150.457 97.3241 150.275 97.1173 150.14 96.8512C150.009 96.581 149.943 96.2698 149.943 95.9177ZM152.51 95.9238C152.51 95.6618 152.437 95.455 152.289 95.3035C152.146 95.1521 151.97 95.0763 151.761 95.0763C151.552 95.0763 151.374 95.1521 151.227 95.3035C151.083 95.4509 151.012 95.6557 151.012 95.9177C151.012 96.1797 151.083 96.3885 151.227 96.5441C151.374 96.6956 151.552 96.7714 151.761 96.7714C151.97 96.7714 152.146 96.6956 152.289 96.5441C152.437 96.3926 152.51 96.1859 152.51 95.9238ZM155.407 94.1305V93.154H157.108V97.6373H156.015V94.1305H155.407ZM157.826 95.3343C157.826 94.63 157.961 94.0753 158.232 93.6699C158.506 93.2646 158.946 93.0619 159.552 93.0619C160.158 93.0619 160.596 93.2646 160.866 93.6699C161.141 94.0753 161.278 94.63 161.278 95.3343C161.278 96.0467 161.141 96.6055 160.866 97.0109C160.596 97.4162 160.158 97.6189 159.552 97.6189C158.946 97.6189 158.506 97.4162 158.232 97.0109C157.961 96.6055 157.826 96.0467 157.826 95.3343ZM160.246 95.3343C160.246 94.9207 160.201 94.6034 160.111 94.3823C160.021 94.1571 159.835 94.0445 159.552 94.0445C159.269 94.0445 159.083 94.1571 158.993 94.3823C158.903 94.6034 158.858 94.9207 158.858 95.3343C158.858 95.6127 158.874 95.844 158.907 96.0282C158.94 96.2084 159.005 96.3558 159.104 96.4704C159.206 96.581 159.355 96.6362 159.552 96.6362C159.749 96.6362 159.896 96.581 159.994 96.4704C160.097 96.3558 160.164 96.2084 160.197 96.0282C160.23 95.844 160.246 95.6127 160.246 95.3343Z" fill="#142344"/>
</svg>
