<svg width="52" height="39" viewBox="0 0 52 39" fill="none" xmlns="http://www.w3.org/2000/svg">
<rect x="3.16943" y="10.9265" width="13.3115" height="11.9198" transform="rotate(-8.86829 3.16943 10.9265)" fill="#142344"/>
<path d="M16.822 9.22195C16.822 9.22195 34.4005 6.34822 34.6724 0.0362285L38.4494 22.7204C32.9795 16.7715 18.4833 19.8691 18.4833 19.8691L16.822 9.22195Z" fill="#142344"/>
<path d="M12.3607 25.3553C8.87436 25.9892 9.1913 25.3553 8.24048 22.8198L16.481 21.552C18.277 25.7779 22.1859 37.3991 24.4045 37.3991C27.8532 37.3991 21.4464 39.4064 18.6996 38.6669C18.1713 34.441 15.1498 24.8482 12.3607 25.3553Z" fill="#142344"/>
<rect x="34.8636" y="0.208496" width="1.21418" height="22.9682" transform="rotate(-9.88723 34.8636 0.208496)" fill="#142344"/>
<path d="M39.0235 14.7705L37.8303 8.40247C38.9017 8.42716 39.7167 9.03148 40.2516 11.263C40.8628 13.8133 39.0235 14.7705 39.0235 14.7705Z" fill="#142344"/>
<path d="M0.276681 13.6602C0.123875 12.6211 0.842338 11.6549 1.88141 11.5021L2.64368 11.39L4.21154 22.0514L3.44927 22.1635C2.4102 22.3163 1.44399 21.5978 1.29118 20.5587L0.276681 13.6602Z" fill="#142344"/>
<rect x="42.4702" y="5.8252" width="7.6066" height="0.633883" rx="0.316942" transform="rotate(-36.8084 42.4702 5.8252)" fill="#142344"/>
<rect width="7.6066" height="0.633883" rx="0.316942" transform="matrix(0.904575 0.426314 0.426314 -0.904575 43.738 16.4204)" fill="#142344"/>
<rect width="7.6066" height="0.637039" rx="0.318519" transform="matrix(0.992785 -0.119907 -0.119907 -0.992785 44.4483 11.0529)" fill="#142344"/>
</svg>
