<svg width="21" height="19" viewBox="0 0 21 19" fill="none" xmlns="http://www.w3.org/2000/svg">
<path d="M1.3864 3.51562H19.9578C20.3523 3.51562 20.6721 3.16587 20.6721 2.73438V0.78125C20.6721 0.349756 20.3523 0 19.9578 0H1.3864C0.991896 0 0.672119 0.349756 0.672119 0.78125V2.73438C0.672119 3.16587 0.991896 3.51562 1.3864 3.51562ZM1.3864 11.3281H19.9578C20.3523 11.3281 20.6721 10.9784 20.6721 10.5469V8.59375C20.6721 8.16226 20.3523 7.8125 19.9578 7.8125H1.3864C0.991896 7.8125 0.672119 8.16226 0.672119 8.59375V10.5469C0.672119 10.9784 0.991896 11.3281 1.3864 11.3281ZM1.3864 19.1406H19.9578C20.3523 19.1406 20.6721 18.7909 20.6721 18.3594V16.4062C20.6721 15.9748 20.3523 15.625 19.9578 15.625H1.3864C0.991896 15.625 0.672119 15.9748 0.672119 16.4062V18.3594C0.672119 18.7909 0.991896 19.1406 1.3864 19.1406Z" fill="white"/>
</svg>
