<svg width="217" height="65" viewBox="0 0 217 65" fill="none" xmlns="http://www.w3.org/2000/svg">
<path d="M104.8 23.152C106.576 23.152 108.128 23.504 109.456 24.208C110.784 24.912 111.808 25.904 112.528 27.184C113.264 28.448 113.632 29.912 113.632 31.576C113.632 33.224 113.264 34.688 112.528 35.968C111.808 37.248 110.776 38.24 109.432 38.944C108.104 39.648 106.56 40 104.8 40H98.488V23.152H104.8ZM104.536 36.448C106.088 36.448 107.296 36.024 108.16 35.176C109.024 34.328 109.456 33.128 109.456 31.576C109.456 30.024 109.024 28.816 108.16 27.952C107.296 27.088 106.088 26.656 104.536 26.656H102.592V36.448H104.536ZM120.03 26.44V29.848H125.526V33.016H120.03V36.712H126.246V40H115.926V23.152H126.246V26.44H120.03ZM143.982 40H139.878L133.014 29.608V40H128.91V23.152H133.014L139.878 33.592V23.152H143.982V40ZM162.029 40H157.925L151.061 29.608V40H146.957V23.152H151.061L157.925 33.592V23.152H162.029V40ZM169.108 23.152V40H165.004V23.152H169.108ZM178.178 40.168C176.946 40.168 175.842 39.968 174.866 39.568C173.89 39.168 173.106 38.576 172.514 37.792C171.938 37.008 171.634 36.064 171.602 34.96H175.97C176.034 35.584 176.25 36.064 176.618 36.4C176.986 36.72 177.466 36.88 178.058 36.88C178.666 36.88 179.146 36.744 179.498 36.472C179.85 36.184 180.026 35.792 180.026 35.296C180.026 34.88 179.882 34.536 179.594 34.264C179.322 33.992 178.978 33.768 178.562 33.592C178.162 33.416 177.586 33.216 176.834 32.992C175.746 32.656 174.858 32.32 174.17 31.984C173.482 31.648 172.89 31.152 172.394 30.496C171.898 29.84 171.65 28.984 171.65 27.928C171.65 26.36 172.218 25.136 173.354 24.256C174.49 23.36 175.97 22.912 177.794 22.912C179.65 22.912 181.146 23.36 182.282 24.256C183.418 25.136 184.026 26.368 184.106 27.952H179.666C179.634 27.408 179.434 26.984 179.066 26.68C178.698 26.36 178.226 26.2 177.65 26.2C177.154 26.2 176.754 26.336 176.45 26.608C176.146 26.864 175.994 27.24 175.994 27.736C175.994 28.28 176.25 28.704 176.762 29.008C177.274 29.312 178.074 29.64 179.162 29.992C180.25 30.36 181.13 30.712 181.802 31.048C182.49 31.384 183.082 31.872 183.578 32.512C184.074 33.152 184.322 33.976 184.322 34.984C184.322 35.944 184.074 36.816 183.578 37.6C183.098 38.384 182.394 39.008 181.466 39.472C180.538 39.936 179.442 40.168 178.178 40.168Z" fill="white"/>
<path d="M24.762 55.424H23.75V60H21.869V55.424H21.187V53.862H21.869V53.686C21.869 52.9307 22.0853 52.3587 22.518 51.97C22.9507 51.574 23.585 51.376 24.421 51.376C24.5603 51.376 24.663 51.3797 24.729 51.387V52.982C24.3697 52.96 24.1167 53.0113 23.97 53.136C23.8233 53.2607 23.75 53.4843 23.75 53.807V53.862H24.762V55.424ZM28.4399 60.088C27.8385 60.088 27.2959 59.9597 26.8119 59.703C26.3352 59.4463 25.9575 59.0797 25.6789 58.603C25.4075 58.1263 25.2719 57.569 25.2719 56.931C25.2719 56.3003 25.4112 55.7467 25.6899 55.27C25.9685 54.786 26.3499 54.4157 26.8339 54.159C27.3179 53.9023 27.8605 53.774 28.4619 53.774C29.0632 53.774 29.6059 53.9023 30.0899 54.159C30.5739 54.4157 30.9552 54.786 31.2339 55.27C31.5125 55.7467 31.6519 56.3003 31.6519 56.931C31.6519 57.5617 31.5089 58.119 31.2229 58.603C30.9442 59.0797 30.5592 59.4463 30.0679 59.703C29.5839 59.9597 29.0412 60.088 28.4399 60.088ZM28.4399 58.46C28.7992 58.46 29.1035 58.328 29.3529 58.064C29.6095 57.8 29.7379 57.4223 29.7379 56.931C29.7379 56.4397 29.6132 56.062 29.3639 55.798C29.1219 55.534 28.8212 55.402 28.4619 55.402C28.0952 55.402 27.7909 55.534 27.5489 55.798C27.3069 56.0547 27.1859 56.4323 27.1859 56.931C27.1859 57.4223 27.3032 57.8 27.5379 58.064C27.7799 58.328 28.0805 58.46 28.4399 58.46ZM34.5308 54.885C34.7508 54.5477 35.0258 54.2837 35.3558 54.093C35.6858 53.895 36.0524 53.796 36.4558 53.796V55.787H35.9388C35.4694 55.787 35.1174 55.8897 34.8828 56.095C34.6481 56.293 34.5308 56.645 34.5308 57.151V60H32.6498V53.862H34.5308V54.885ZM45.5709 54.764C45.5709 55.2113 45.4682 55.622 45.2629 55.996C45.0576 56.3627 44.7422 56.6597 44.3169 56.887C43.8916 57.1143 43.3636 57.228 42.7329 57.228H41.5669V60H39.6859V52.278H42.7329C43.3489 52.278 43.8696 52.3843 44.2949 52.597C44.7202 52.8097 45.0392 53.103 45.2519 53.477C45.4646 53.851 45.5709 54.28 45.5709 54.764ZM42.5899 55.732C42.9492 55.732 43.2169 55.6477 43.3929 55.479C43.5689 55.3103 43.6569 55.072 43.6569 54.764C43.6569 54.456 43.5689 54.2177 43.3929 54.049C43.2169 53.8803 42.9492 53.796 42.5899 53.796H41.5669V55.732H42.5899ZM52.6112 53.862V60H50.7302V59.164C50.5395 59.4353 50.2792 59.6553 49.9492 59.824C49.6265 59.9853 49.2672 60.066 48.8712 60.066C48.4018 60.066 47.9875 59.9633 47.6282 59.758C47.2688 59.5453 46.9902 59.241 46.7922 58.845C46.5942 58.449 46.4952 57.9833 46.4952 57.448V53.862H48.3652V57.195C48.3652 57.6057 48.4715 57.9247 48.6842 58.152C48.8968 58.3793 49.1828 58.493 49.5422 58.493C49.9088 58.493 50.1985 58.3793 50.4112 58.152C50.6238 57.9247 50.7302 57.6057 50.7302 57.195V53.862H52.6112ZM55.8433 54.731C56.0193 54.445 56.2723 54.214 56.6023 54.038C56.9323 53.862 57.3099 53.774 57.7353 53.774C58.2413 53.774 58.6996 53.9023 59.1103 54.159C59.5209 54.4157 59.8436 54.7823 60.0783 55.259C60.3203 55.7357 60.4413 56.2893 60.4413 56.92C60.4413 57.5507 60.3203 58.108 60.0783 58.592C59.8436 59.0687 59.5209 59.439 59.1103 59.703C58.6996 59.9597 58.2413 60.088 57.7353 60.088C57.3026 60.088 56.9249 60.0037 56.6023 59.835C56.2796 59.659 56.0266 59.428 55.8433 59.142V60H53.9623V51.86H55.8433V54.731ZM58.5273 56.92C58.5273 56.4507 58.3953 56.084 58.1313 55.82C57.8746 55.5487 57.5556 55.413 57.1743 55.413C56.8003 55.413 56.4813 55.5487 56.2173 55.82C55.9606 56.0913 55.8323 56.4617 55.8323 56.931C55.8323 57.4003 55.9606 57.7707 56.2173 58.042C56.4813 58.3133 56.8003 58.449 57.1743 58.449C57.5483 58.449 57.8673 58.3133 58.1313 58.042C58.3953 57.7633 58.5273 57.3893 58.5273 56.92ZM63.3091 51.86V60H61.4281V51.86H63.3091ZM65.6182 53.224C65.2882 53.224 65.0169 53.1287 64.8042 52.938C64.5989 52.74 64.4962 52.498 64.4962 52.212C64.4962 51.9187 64.5989 51.6767 64.8042 51.486C65.0169 51.288 65.2882 51.189 65.6182 51.189C65.9409 51.189 66.2049 51.288 66.4102 51.486C66.6229 51.6767 66.7292 51.9187 66.7292 52.212C66.7292 52.498 66.6229 52.74 66.4102 52.938C66.2049 53.1287 65.9409 53.224 65.6182 53.224ZM66.5532 53.862V60H64.6722V53.862H66.5532ZM67.5424 56.931C67.5424 56.293 67.6707 55.7357 67.9274 55.259C68.1914 54.7823 68.5544 54.4157 69.0164 54.159C69.4857 53.9023 70.021 53.774 70.6224 53.774C71.3924 53.774 72.034 53.9757 72.5474 54.379C73.068 54.7823 73.409 55.3507 73.5704 56.084H71.5684C71.3997 55.6147 71.0734 55.38 70.5894 55.38C70.2447 55.38 69.9697 55.5157 69.7644 55.787C69.559 56.051 69.4564 56.4323 69.4564 56.931C69.4564 57.4297 69.559 57.8147 69.7644 58.086C69.9697 58.35 70.2447 58.482 70.5894 58.482C71.0734 58.482 71.3997 58.2473 71.5684 57.778H73.5704C73.409 58.4967 73.068 59.0613 72.5474 59.472C72.0267 59.8827 71.385 60.088 70.6224 60.088C70.021 60.088 69.4857 59.9597 69.0164 59.703C68.5544 59.4463 68.1914 59.0797 67.9274 58.603C67.6707 58.1263 67.5424 57.569 67.5424 56.931ZM79.7016 60.077C79.1369 60.077 78.6309 59.9853 78.1836 59.802C77.7363 59.6187 77.3769 59.3473 77.1056 58.988C76.8416 58.6287 76.7023 58.196 76.6876 57.69H78.6896C78.7189 57.976 78.8179 58.196 78.9866 58.35C79.1553 58.4967 79.3753 58.57 79.6466 58.57C79.9253 58.57 80.1453 58.5077 80.3066 58.383C80.4679 58.251 80.5486 58.0713 80.5486 57.844C80.5486 57.6533 80.4826 57.4957 80.3506 57.371C80.2259 57.2463 80.0683 57.1437 79.8776 57.063C79.6943 56.9823 79.4303 56.8907 79.0856 56.788C78.5869 56.634 78.1799 56.48 77.8646 56.326C77.5493 56.172 77.2779 55.9447 77.0506 55.644C76.8233 55.3433 76.7096 54.951 76.7096 54.467C76.7096 53.7483 76.9699 53.1873 77.4906 52.784C78.0113 52.3733 78.6896 52.168 79.5256 52.168C80.3763 52.168 81.0619 52.3733 81.5826 52.784C82.1033 53.1873 82.3819 53.752 82.4186 54.478H80.3836C80.3689 54.2287 80.2773 54.0343 80.1086 53.895C79.9399 53.7483 79.7236 53.675 79.4596 53.675C79.2323 53.675 79.0489 53.7373 78.9096 53.862C78.7703 53.9793 78.7006 54.1517 78.7006 54.379C78.7006 54.6283 78.8179 54.8227 79.0526 54.962C79.2873 55.1013 79.6539 55.2517 80.1526 55.413C80.6513 55.5817 81.0546 55.743 81.3626 55.897C81.6779 56.051 81.9493 56.2747 82.1766 56.568C82.4039 56.8613 82.5176 57.239 82.5176 57.701C82.5176 58.141 82.4039 58.5407 82.1766 58.9C81.9566 59.2593 81.6339 59.5453 81.2086 59.758C80.7833 59.9707 80.2809 60.077 79.7016 60.077ZM83.3012 56.931C83.3012 56.293 83.4295 55.7357 83.6862 55.259C83.9502 54.7823 84.3132 54.4157 84.7752 54.159C85.2445 53.9023 85.7798 53.774 86.3812 53.774C87.1512 53.774 87.7928 53.9757 88.3062 54.379C88.8268 54.7823 89.1678 55.3507 89.3292 56.084H87.3272C87.1585 55.6147 86.8322 55.38 86.3482 55.38C86.0035 55.38 85.7285 55.5157 85.5232 55.787C85.3178 56.051 85.2152 56.4323 85.2152 56.931C85.2152 57.4297 85.3178 57.8147 85.5232 58.086C85.7285 58.35 86.0035 58.482 86.3482 58.482C86.8322 58.482 87.1585 58.2473 87.3272 57.778H89.3292C89.1678 58.4967 88.8268 59.0613 88.3062 59.472C87.7855 59.8827 87.1438 60.088 86.3812 60.088C85.7798 60.088 85.2445 59.9597 84.7752 59.703C84.3132 59.4463 83.9502 59.0797 83.6862 58.603C83.4295 58.1263 83.3012 57.569 83.3012 56.931ZM94.1083 53.796C94.8123 53.796 95.377 54.0307 95.8023 54.5C96.2277 54.962 96.4403 55.6 96.4403 56.414V60H94.5703V56.667C94.5703 56.2563 94.464 55.9373 94.2513 55.71C94.0387 55.4827 93.7527 55.369 93.3933 55.369C93.034 55.369 92.748 55.4827 92.5353 55.71C92.3227 55.9373 92.2163 56.2563 92.2163 56.667V60H90.3353V51.86H92.2163V54.687C92.407 54.4157 92.6673 54.1993 92.9973 54.038C93.3273 53.8767 93.6977 53.796 94.1083 53.796ZM100.541 60.088C99.9401 60.088 99.3974 59.9597 98.9134 59.703C98.4368 59.4463 98.0591 59.0797 97.7804 58.603C97.5091 58.1263 97.3734 57.569 97.3734 56.931C97.3734 56.3003 97.5128 55.7467 97.7914 55.27C98.0701 54.786 98.4514 54.4157 98.9354 54.159C99.4194 53.9023 99.9621 53.774 100.563 53.774C101.165 53.774 101.707 53.9023 102.191 54.159C102.675 54.4157 103.057 54.786 103.335 55.27C103.614 55.7467 103.753 56.3003 103.753 56.931C103.753 57.5617 103.61 58.119 103.324 58.603C103.046 59.0797 102.661 59.4463 102.169 59.703C101.685 59.9597 101.143 60.088 100.541 60.088ZM100.541 58.46C100.901 58.46 101.205 58.328 101.454 58.064C101.711 57.8 101.839 57.4223 101.839 56.931C101.839 56.4397 101.715 56.062 101.465 55.798C101.223 55.534 100.923 55.402 100.563 55.402C100.197 55.402 99.8924 55.534 99.6504 55.798C99.4084 56.0547 99.2874 56.4323 99.2874 56.931C99.2874 57.4223 99.4048 57.8 99.6394 58.064C99.8814 58.328 100.182 58.46 100.541 58.46ZM107.545 60.088C106.944 60.088 106.401 59.9597 105.917 59.703C105.441 59.4463 105.063 59.0797 104.784 58.603C104.513 58.1263 104.377 57.569 104.377 56.931C104.377 56.3003 104.517 55.7467 104.795 55.27C105.074 54.786 105.455 54.4157 105.939 54.159C106.423 53.9023 106.966 53.774 107.567 53.774C108.169 53.774 108.711 53.9023 109.195 54.159C109.679 54.4157 110.061 54.786 110.339 55.27C110.618 55.7467 110.757 56.3003 110.757 56.931C110.757 57.5617 110.614 58.119 110.328 58.603C110.05 59.0797 109.665 59.4463 109.173 59.703C108.689 59.9597 108.147 60.088 107.545 60.088ZM107.545 58.46C107.905 58.46 108.209 58.328 108.458 58.064C108.715 57.8 108.843 57.4223 108.843 56.931C108.843 56.4397 108.719 56.062 108.469 55.798C108.227 55.534 107.927 55.402 107.567 55.402C107.201 55.402 106.896 55.534 106.654 55.798C106.412 56.0547 106.291 56.4323 106.291 56.931C106.291 57.4223 106.409 57.8 106.643 58.064C106.885 58.328 107.186 58.46 107.545 58.46ZM113.636 51.86V60H111.755V51.86H113.636ZM122.885 52.278V53.785H120.839V60H118.958V53.785H116.912V52.278H122.885ZM125.71 54.885C125.93 54.5477 126.205 54.2837 126.535 54.093C126.865 53.895 127.232 53.796 127.635 53.796V55.787H127.118C126.649 55.787 126.297 55.8897 126.062 56.095C125.828 56.293 125.71 56.645 125.71 57.151V60H123.829V53.862H125.71V54.885ZM134.596 53.862V60H132.715V59.164C132.524 59.4353 132.264 59.6553 131.934 59.824C131.611 59.9853 131.252 60.066 130.856 60.066C130.386 60.066 129.972 59.9633 129.613 59.758C129.253 59.5453 128.975 59.241 128.777 58.845C128.579 58.449 128.48 57.9833 128.48 57.448V53.862H130.35V57.195C130.35 57.6057 130.456 57.9247 130.669 58.152C130.881 58.3793 131.167 58.493 131.527 58.493C131.893 58.493 132.183 58.3793 132.396 58.152C132.608 57.9247 132.715 57.6057 132.715 57.195V53.862H134.596ZM138.444 60.088C137.908 60.088 137.432 59.9963 137.014 59.813C136.596 59.6297 136.266 59.3803 136.024 59.065C135.782 58.7423 135.646 58.383 135.617 57.987H137.476C137.498 58.1997 137.597 58.372 137.773 58.504C137.949 58.636 138.165 58.702 138.422 58.702C138.656 58.702 138.836 58.658 138.961 58.57C139.093 58.4747 139.159 58.3537 139.159 58.207C139.159 58.031 139.067 57.9027 138.884 57.822C138.7 57.734 138.403 57.6387 137.993 57.536C137.553 57.4333 137.186 57.327 136.893 57.217C136.599 57.0997 136.346 56.92 136.134 56.678C135.921 56.4287 135.815 56.095 135.815 55.677C135.815 55.325 135.91 55.006 136.101 54.72C136.299 54.4267 136.585 54.1957 136.959 54.027C137.34 53.8583 137.791 53.774 138.312 53.774C139.082 53.774 139.687 53.9647 140.127 54.346C140.574 54.7273 140.831 55.2333 140.897 55.864H139.159C139.129 55.6513 139.034 55.4827 138.873 55.358C138.719 55.2333 138.513 55.171 138.257 55.171C138.037 55.171 137.868 55.215 137.751 55.303C137.633 55.3837 137.575 55.4973 137.575 55.644C137.575 55.82 137.666 55.952 137.85 56.04C138.04 56.128 138.334 56.216 138.73 56.304C139.184 56.4213 139.555 56.5387 139.841 56.656C140.127 56.766 140.376 56.9493 140.589 57.206C140.809 57.4553 140.922 57.7927 140.93 58.218C140.93 58.5773 140.827 58.9 140.622 59.186C140.424 59.4647 140.134 59.6847 139.753 59.846C139.379 60.0073 138.942 60.088 138.444 60.088ZM145.501 58.405V60H144.544C143.862 60 143.331 59.835 142.949 59.505C142.568 59.1677 142.377 58.6213 142.377 57.866V55.424H141.629V53.862H142.377V52.366H144.258V53.862H145.49V55.424H144.258V57.888C144.258 58.0713 144.302 58.2033 144.39 58.284C144.478 58.3647 144.625 58.405 144.83 58.405H145.501ZM152.335 56.832C152.335 57.008 152.324 57.1913 152.302 57.382H148.045C148.075 57.7633 148.196 58.0567 148.408 58.262C148.628 58.46 148.896 58.559 149.211 58.559C149.681 58.559 150.007 58.361 150.19 57.965H152.192C152.09 58.3683 151.903 58.7313 151.631 59.054C151.367 59.3767 151.034 59.6297 150.63 59.813C150.227 59.9963 149.776 60.088 149.277 60.088C148.676 60.088 148.141 59.9597 147.671 59.703C147.202 59.4463 146.835 59.0797 146.571 58.603C146.307 58.1263 146.175 57.569 146.175 56.931C146.175 56.293 146.304 55.7357 146.56 55.259C146.824 54.7823 147.191 54.4157 147.66 54.159C148.13 53.9023 148.669 53.774 149.277 53.774C149.871 53.774 150.399 53.8987 150.861 54.148C151.323 54.3973 151.683 54.753 151.939 55.215C152.203 55.677 152.335 56.216 152.335 56.832ZM150.41 56.337C150.41 56.0143 150.3 55.7577 150.08 55.567C149.86 55.3763 149.585 55.281 149.255 55.281C148.94 55.281 148.672 55.3727 148.452 55.556C148.24 55.7393 148.108 55.9997 148.056 56.337H150.41ZM159.114 56.832C159.114 57.008 159.103 57.1913 159.081 57.382H154.824C154.853 57.7633 154.974 58.0567 155.187 58.262C155.407 58.46 155.674 58.559 155.99 58.559C156.459 58.559 156.785 58.361 156.969 57.965H158.971C158.868 58.3683 158.681 58.7313 158.41 59.054C158.146 59.3767 157.812 59.6297 157.409 59.813C157.005 59.9963 156.554 60.088 156.056 60.088C155.454 60.088 154.919 59.9597 154.45 59.703C153.98 59.4463 153.614 59.0797 153.35 58.603C153.086 58.1263 152.954 57.569 152.954 56.931C152.954 56.293 153.082 55.7357 153.339 55.259C153.603 54.7823 153.969 54.4157 154.439 54.159C154.908 53.9023 155.447 53.774 156.056 53.774C156.65 53.774 157.178 53.8987 157.64 54.148C158.102 54.3973 158.461 54.753 158.718 55.215C158.982 55.677 159.114 56.216 159.114 56.832ZM157.189 56.337C157.189 56.0143 157.079 55.7577 156.859 55.567C156.639 55.3763 156.364 55.281 156.034 55.281C155.718 55.281 155.451 55.3727 155.231 55.556C155.018 55.7393 154.886 55.9997 154.835 56.337H157.189Z" fill="#F5D810"/>
<path d="M5.46 19L3.562 15.555H3.029V19H0.806V9.874H4.537C5.25633 9.874 5.86733 9.99967 6.37 10.251C6.88133 10.5023 7.26267 10.849 7.514 11.291C7.76533 11.7243 7.891 12.2097 7.891 12.747C7.891 13.3537 7.71767 13.8953 7.371 14.372C7.033 14.8487 6.53033 15.1867 5.863 15.386L7.969 19H5.46ZM3.029 13.982H4.407C4.81433 13.982 5.11767 13.8823 5.317 13.683C5.525 13.4837 5.629 13.202 5.629 12.838C5.629 12.4913 5.525 12.2183 5.317 12.019C5.11767 11.8197 4.81433 11.72 4.407 11.72H3.029V13.982ZM11.5095 11.655V13.501H14.4865V15.217H11.5095V17.219H14.8765V19H9.28647V9.874H14.8765V11.655H11.5095ZM21.9097 13.514V15.36H16.1897V13.514H21.9097ZM26.0837 11.655V13.501H29.0607V15.217H26.0837V17.219H29.4507V19H23.8607V9.874H29.4507V11.655H26.0837ZM33.1169 17.284H36.0289V19H30.8939V9.874H33.1169V17.284ZM39.3122 11.655V13.501H42.2892V15.217H39.3122V17.219H42.6792V19H37.0892V9.874H42.6792V11.655H39.3122ZM43.7454 14.424C43.7454 13.5227 43.9404 12.721 44.3304 12.019C44.7204 11.3083 45.2621 10.758 45.9554 10.368C46.6574 9.96933 47.4504 9.77 48.3344 9.77C49.4177 9.77 50.3451 10.056 51.1164 10.628C51.8877 11.2 52.4034 11.98 52.6634 12.968H50.2194C50.0374 12.5867 49.7774 12.2963 49.4394 12.097C49.1101 11.8977 48.7331 11.798 48.3084 11.798C47.6237 11.798 47.0691 12.0363 46.6444 12.513C46.2197 12.9897 46.0074 13.6267 46.0074 14.424C46.0074 15.2213 46.2197 15.8583 46.6444 16.335C47.0691 16.8117 47.6237 17.05 48.3084 17.05C48.7331 17.05 49.1101 16.9503 49.4394 16.751C49.7774 16.5517 50.0374 16.2613 50.2194 15.88H52.6634C52.4034 16.868 51.8877 17.648 51.1164 18.22C50.3451 18.7833 49.4177 19.065 48.3344 19.065C47.4504 19.065 46.6574 18.87 45.9554 18.48C45.2621 18.0813 44.7204 17.531 44.3304 16.829C43.9404 16.127 43.7454 15.3253 43.7454 14.424ZM60.5898 9.874V11.655H58.1718V19H55.9488V11.655H53.5308V9.874H60.5898Z" fill="#DF4545"/>
<path d="M169.5 40.5L174.019 40.5279L171.761 46.0867L168.03 44.5711L169.5 40.5Z" fill="#F5D810"/>
<path d="M158.242 22.6736L163.5 22.6736L159 17L155.986 19.4765L158.242 22.6736Z" fill="#F5D810"/>
<path d="M159.755 21.3774L155 15.8138L178.559 19.4828L183.966 5L192.462 21.8L211 25.0828L197.869 33L207.91 54.4345L187.441 39.7586L167.359 51.3448L170.849 43.0377" stroke="#F5D810" stroke-width="4"/>
<path d="M19.711 23.854V40H15.778V30.317L12.167 40H8.993L5.359 30.294V40H1.426V23.854H6.072L10.603 35.032L15.088 23.854H19.711ZM21.7573 33.56C21.7573 32.2413 22.0026 31.0837 22.4933 30.087C22.9993 29.0903 23.6816 28.3237 24.5403 27.787C25.3989 27.2503 26.3573 26.982 27.4153 26.982C28.3199 26.982 29.1096 27.166 29.7843 27.534C30.4743 27.902 31.0033 28.385 31.3713 28.983V27.166H35.3043V40H31.3713V38.183C30.9879 38.781 30.4513 39.264 29.7613 39.632C29.0866 40 28.2969 40.184 27.3923 40.184C26.3496 40.184 25.3989 39.9157 24.5403 39.379C23.6816 38.827 22.9993 38.0527 22.4933 37.056C22.0026 36.044 21.7573 34.8787 21.7573 33.56ZM31.3713 33.583C31.3713 32.6017 31.0953 31.8273 30.5433 31.26C30.0066 30.6927 29.3473 30.409 28.5653 30.409C27.7833 30.409 27.1163 30.6927 26.5643 31.26C26.0276 31.812 25.7593 32.5787 25.7593 33.56C25.7593 34.5413 26.0276 35.3233 26.5643 35.906C27.1163 36.4733 27.7833 36.757 28.5653 36.757C29.3473 36.757 30.0066 36.4733 30.5433 35.906C31.0953 35.3387 31.3713 34.5643 31.3713 33.583ZM42.0826 29.305C42.5426 28.5997 43.1176 28.0477 43.8076 27.649C44.4976 27.235 45.2643 27.028 46.1076 27.028V31.191H45.0266C44.0453 31.191 43.3093 31.4057 42.8186 31.835C42.328 32.249 42.0826 32.985 42.0826 34.043V40H38.1496V27.166H42.0826V29.305ZM49.9655 25.832C49.2755 25.832 48.7082 25.6327 48.2635 25.234C47.8342 24.82 47.6195 24.314 47.6195 23.716C47.6195 23.1027 47.8342 22.5967 48.2635 22.198C48.7082 21.784 49.2755 21.577 49.9655 21.577C50.6402 21.577 51.1922 21.784 51.6215 22.198C52.0662 22.5967 52.2885 23.1027 52.2885 23.716C52.2885 24.314 52.0662 24.82 51.6215 25.234C51.1922 25.6327 50.6402 25.832 49.9655 25.832ZM51.9205 27.166V40H47.9875V27.166H51.9205ZM58.7037 22.98V40H54.7707V22.98H58.7037ZM74.6639 27.166L66.6139 46.095H62.3819L65.3259 39.563L60.1049 27.166H64.4979L67.4649 35.193L70.4089 27.166H74.6639ZM83.9062 27.028C85.4088 27.028 86.6048 27.5187 87.4942 28.5C88.3988 29.466 88.8512 30.8 88.8512 32.502V40H84.9412V33.031C84.9412 32.1723 84.7188 31.5053 84.2742 31.03C83.8295 30.5547 83.2315 30.317 82.4802 30.317C81.7288 30.317 81.1308 30.5547 80.6862 31.03C80.2415 31.5053 80.0192 32.1723 80.0192 33.031V40H76.0862V27.166H80.0192V28.868C80.4178 28.3007 80.9545 27.856 81.6292 27.534C82.3038 27.1967 83.0628 27.028 83.9062 27.028Z" fill="white"/>
</svg>
