<svg width="186" height="58" viewBox="0 0 186 58" fill="none" xmlns="http://www.w3.org/2000/svg">
<path d="M104.8 19.152C106.576 19.152 108.128 19.504 109.456 20.208C110.784 20.912 111.808 21.904 112.528 23.184C113.264 24.448 113.632 25.912 113.632 27.576C113.632 29.224 113.264 30.688 112.528 31.968C111.808 33.248 110.776 34.24 109.432 34.944C108.104 35.648 106.56 36 104.8 36H98.488V19.152H104.8ZM104.536 32.448C106.088 32.448 107.296 32.024 108.16 31.176C109.024 30.328 109.456 29.128 109.456 27.576C109.456 26.024 109.024 24.816 108.16 23.952C107.296 23.088 106.088 22.656 104.536 22.656H102.592V32.448H104.536ZM120.03 22.44V25.848H125.526V29.016H120.03V32.712H126.246V36H115.926V19.152H126.246V22.44H120.03ZM143.982 36H139.878L133.014 25.608V36H128.91V19.152H133.014L139.878 29.592V19.152H143.982V36ZM162.029 36H157.925L151.061 25.608V36H146.957V19.152H151.061L157.925 29.592V19.152H162.029V36ZM169.108 19.152V36H165.004V19.152H169.108ZM178.178 36.168C176.946 36.168 175.842 35.968 174.866 35.568C173.89 35.168 173.106 34.576 172.514 33.792C171.938 33.008 171.634 32.064 171.602 30.96H175.97C176.034 31.584 176.25 32.064 176.618 32.4C176.986 32.72 177.466 32.88 178.058 32.88C178.666 32.88 179.146 32.744 179.498 32.472C179.85 32.184 180.026 31.792 180.026 31.296C180.026 30.88 179.882 30.536 179.594 30.264C179.322 29.992 178.978 29.768 178.562 29.592C178.162 29.416 177.586 29.216 176.834 28.992C175.746 28.656 174.858 28.32 174.17 27.984C173.482 27.648 172.89 27.152 172.394 26.496C171.898 25.84 171.65 24.984 171.65 23.928C171.65 22.36 172.218 21.136 173.354 20.256C174.49 19.36 175.97 18.912 177.794 18.912C179.65 18.912 181.146 19.36 182.282 20.256C183.418 21.136 184.026 22.368 184.106 23.952H179.666C179.634 23.408 179.434 22.984 179.066 22.68C178.698 22.36 178.226 22.2 177.65 22.2C177.154 22.2 176.754 22.336 176.45 22.608C176.146 22.864 175.994 23.24 175.994 23.736C175.994 24.28 176.25 24.704 176.762 25.008C177.274 25.312 178.074 25.64 179.162 25.992C180.25 26.36 181.13 26.712 181.802 27.048C182.49 27.384 183.082 27.872 183.578 28.512C184.074 29.152 184.322 29.976 184.322 30.984C184.322 31.944 184.074 32.816 183.578 33.6C183.098 34.384 182.394 35.008 181.466 35.472C180.538 35.936 179.442 36.168 178.178 36.168Z" fill="#F5D810"/>
<path d="M47.762 48.424H46.75V53H44.869V48.424H44.187V46.862H44.869V46.686C44.869 45.9307 45.0853 45.3587 45.518 44.97C45.9507 44.574 46.585 44.376 47.421 44.376C47.5603 44.376 47.663 44.3797 47.729 44.387V45.982C47.3697 45.96 47.1167 46.0113 46.97 46.136C46.8233 46.2607 46.75 46.4843 46.75 46.807V46.862H47.762V48.424ZM51.4399 53.088C50.8385 53.088 50.2959 52.9597 49.8119 52.703C49.3352 52.4463 48.9575 52.0797 48.6789 51.603C48.4075 51.1263 48.2719 50.569 48.2719 49.931C48.2719 49.3003 48.4112 48.7467 48.6899 48.27C48.9685 47.786 49.3499 47.4157 49.8339 47.159C50.3179 46.9023 50.8605 46.774 51.4619 46.774C52.0632 46.774 52.6059 46.9023 53.0899 47.159C53.5739 47.4157 53.9552 47.786 54.2339 48.27C54.5125 48.7467 54.6519 49.3003 54.6519 49.931C54.6519 50.5617 54.5089 51.119 54.2229 51.603C53.9442 52.0797 53.5592 52.4463 53.0679 52.703C52.5839 52.9597 52.0412 53.088 51.4399 53.088ZM51.4399 51.46C51.7992 51.46 52.1035 51.328 52.3529 51.064C52.6095 50.8 52.7379 50.4223 52.7379 49.931C52.7379 49.4397 52.6132 49.062 52.3639 48.798C52.1219 48.534 51.8212 48.402 51.4619 48.402C51.0952 48.402 50.7909 48.534 50.5489 48.798C50.3069 49.0547 50.1859 49.4323 50.1859 49.931C50.1859 50.4223 50.3032 50.8 50.5379 51.064C50.7799 51.328 51.0805 51.46 51.4399 51.46ZM57.5308 47.885C57.7508 47.5477 58.0258 47.2837 58.3558 47.093C58.6858 46.895 59.0524 46.796 59.4558 46.796V48.787H58.9388C58.4694 48.787 58.1174 48.8897 57.8828 49.095C57.6481 49.293 57.5308 49.645 57.5308 50.151V53H55.6498V46.862H57.5308V47.885ZM68.5709 47.764C68.5709 48.2113 68.4682 48.622 68.2629 48.996C68.0576 49.3627 67.7422 49.6597 67.3169 49.887C66.8916 50.1143 66.3636 50.228 65.7329 50.228H64.5669V53H62.6859V45.278H65.7329C66.3489 45.278 66.8696 45.3843 67.2949 45.597C67.7202 45.8097 68.0392 46.103 68.2519 46.477C68.4646 46.851 68.5709 47.28 68.5709 47.764ZM65.5899 48.732C65.9492 48.732 66.2169 48.6477 66.3929 48.479C66.5689 48.3103 66.6569 48.072 66.6569 47.764C66.6569 47.456 66.5689 47.2177 66.3929 47.049C66.2169 46.8803 65.9492 46.796 65.5899 46.796H64.5669V48.732H65.5899ZM75.6112 46.862V53H73.7302V52.164C73.5395 52.4353 73.2792 52.6553 72.9492 52.824C72.6265 52.9853 72.2672 53.066 71.8712 53.066C71.4018 53.066 70.9875 52.9633 70.6282 52.758C70.2688 52.5453 69.9902 52.241 69.7922 51.845C69.5942 51.449 69.4952 50.9833 69.4952 50.448V46.862H71.3652V50.195C71.3652 50.6057 71.4715 50.9247 71.6842 51.152C71.8968 51.3793 72.1828 51.493 72.5422 51.493C72.9088 51.493 73.1985 51.3793 73.4112 51.152C73.6238 50.9247 73.7302 50.6057 73.7302 50.195V46.862H75.6112ZM78.8433 47.731C79.0193 47.445 79.2723 47.214 79.6023 47.038C79.9323 46.862 80.3099 46.774 80.7353 46.774C81.2413 46.774 81.6996 46.9023 82.1103 47.159C82.5209 47.4157 82.8436 47.7823 83.0783 48.259C83.3203 48.7357 83.4413 49.2893 83.4413 49.92C83.4413 50.5507 83.3203 51.108 83.0783 51.592C82.8436 52.0687 82.5209 52.439 82.1103 52.703C81.6996 52.9597 81.2413 53.088 80.7353 53.088C80.3026 53.088 79.9249 53.0037 79.6023 52.835C79.2796 52.659 79.0266 52.428 78.8433 52.142V53H76.9623V44.86H78.8433V47.731ZM81.5273 49.92C81.5273 49.4507 81.3953 49.084 81.1313 48.82C80.8746 48.5487 80.5556 48.413 80.1743 48.413C79.8003 48.413 79.4813 48.5487 79.2173 48.82C78.9606 49.0913 78.8323 49.4617 78.8323 49.931C78.8323 50.4003 78.9606 50.7707 79.2173 51.042C79.4813 51.3133 79.8003 51.449 80.1743 51.449C80.5483 51.449 80.8673 51.3133 81.1313 51.042C81.3953 50.7633 81.5273 50.3893 81.5273 49.92ZM86.3091 44.86V53H84.4281V44.86H86.3091ZM88.6182 46.224C88.2882 46.224 88.0169 46.1287 87.8042 45.938C87.5989 45.74 87.4962 45.498 87.4962 45.212C87.4962 44.9187 87.5989 44.6767 87.8042 44.486C88.0169 44.288 88.2882 44.189 88.6182 44.189C88.9409 44.189 89.2049 44.288 89.4102 44.486C89.6229 44.6767 89.7292 44.9187 89.7292 45.212C89.7292 45.498 89.6229 45.74 89.4102 45.938C89.2049 46.1287 88.9409 46.224 88.6182 46.224ZM89.5532 46.862V53H87.6722V46.862H89.5532ZM90.5424 49.931C90.5424 49.293 90.6707 48.7357 90.9274 48.259C91.1914 47.7823 91.5544 47.4157 92.0164 47.159C92.4857 46.9023 93.021 46.774 93.6224 46.774C94.3924 46.774 95.034 46.9757 95.5474 47.379C96.068 47.7823 96.409 48.3507 96.5704 49.084H94.5684C94.3997 48.6147 94.0734 48.38 93.5894 48.38C93.2447 48.38 92.9697 48.5157 92.7644 48.787C92.559 49.051 92.4564 49.4323 92.4564 49.931C92.4564 50.4297 92.559 50.8147 92.7644 51.086C92.9697 51.35 93.2447 51.482 93.5894 51.482C94.0734 51.482 94.3997 51.2473 94.5684 50.778H96.5704C96.409 51.4967 96.068 52.0613 95.5474 52.472C95.0267 52.8827 94.385 53.088 93.6224 53.088C93.021 53.088 92.4857 52.9597 92.0164 52.703C91.5544 52.4463 91.1914 52.0797 90.9274 51.603C90.6707 51.1263 90.5424 50.569 90.5424 49.931ZM102.702 53.077C102.137 53.077 101.631 52.9853 101.184 52.802C100.736 52.6187 100.377 52.3473 100.106 51.988C99.8416 51.6287 99.7023 51.196 99.6876 50.69H101.69C101.719 50.976 101.818 51.196 101.987 51.35C102.155 51.4967 102.375 51.57 102.647 51.57C102.925 51.57 103.145 51.5077 103.307 51.383C103.468 51.251 103.549 51.0713 103.549 50.844C103.549 50.6533 103.483 50.4957 103.351 50.371C103.226 50.2463 103.068 50.1437 102.878 50.063C102.694 49.9823 102.43 49.8907 102.086 49.788C101.587 49.634 101.18 49.48 100.865 49.326C100.549 49.172 100.278 48.9447 100.051 48.644C99.8233 48.3433 99.7096 47.951 99.7096 47.467C99.7096 46.7483 99.9699 46.1873 100.491 45.784C101.011 45.3733 101.69 45.168 102.526 45.168C103.376 45.168 104.062 45.3733 104.583 45.784C105.103 46.1873 105.382 46.752 105.419 47.478H103.384C103.369 47.2287 103.277 47.0343 103.109 46.895C102.94 46.7483 102.724 46.675 102.46 46.675C102.232 46.675 102.049 46.7373 101.91 46.862C101.77 46.9793 101.701 47.1517 101.701 47.379C101.701 47.6283 101.818 47.8227 102.053 47.962C102.287 48.1013 102.654 48.2517 103.153 48.413C103.651 48.5817 104.055 48.743 104.363 48.897C104.678 49.051 104.949 49.2747 105.177 49.568C105.404 49.8613 105.518 50.239 105.518 50.701C105.518 51.141 105.404 51.5407 105.177 51.9C104.957 52.2593 104.634 52.5453 104.209 52.758C103.783 52.9707 103.281 53.077 102.702 53.077ZM106.301 49.931C106.301 49.293 106.429 48.7357 106.686 48.259C106.95 47.7823 107.313 47.4157 107.775 47.159C108.244 46.9023 108.78 46.774 109.381 46.774C110.151 46.774 110.793 46.9757 111.306 47.379C111.827 47.7823 112.168 48.3507 112.329 49.084H110.327C110.158 48.6147 109.832 48.38 109.348 48.38C109.003 48.38 108.728 48.5157 108.523 48.787C108.318 49.051 108.215 49.4323 108.215 49.931C108.215 50.4297 108.318 50.8147 108.523 51.086C108.728 51.35 109.003 51.482 109.348 51.482C109.832 51.482 110.158 51.2473 110.327 50.778H112.329C112.168 51.4967 111.827 52.0613 111.306 52.472C110.785 52.8827 110.144 53.088 109.381 53.088C108.78 53.088 108.244 52.9597 107.775 52.703C107.313 52.4463 106.95 52.0797 106.686 51.603C106.429 51.1263 106.301 50.569 106.301 49.931ZM117.108 46.796C117.812 46.796 118.377 47.0307 118.802 47.5C119.228 47.962 119.44 48.6 119.44 49.414V53H117.57V49.667C117.57 49.2563 117.464 48.9373 117.251 48.71C117.039 48.4827 116.753 48.369 116.393 48.369C116.034 48.369 115.748 48.4827 115.535 48.71C115.323 48.9373 115.216 49.2563 115.216 49.667V53H113.335V44.86H115.216V47.687C115.407 47.4157 115.667 47.1993 115.997 47.038C116.327 46.8767 116.698 46.796 117.108 46.796ZM123.541 53.088C122.94 53.088 122.397 52.9597 121.913 52.703C121.437 52.4463 121.059 52.0797 120.78 51.603C120.509 51.1263 120.373 50.569 120.373 49.931C120.373 49.3003 120.513 48.7467 120.791 48.27C121.07 47.786 121.451 47.4157 121.935 47.159C122.419 46.9023 122.962 46.774 123.563 46.774C124.165 46.774 124.707 46.9023 125.191 47.159C125.675 47.4157 126.057 47.786 126.335 48.27C126.614 48.7467 126.753 49.3003 126.753 49.931C126.753 50.5617 126.61 51.119 126.324 51.603C126.046 52.0797 125.661 52.4463 125.169 52.703C124.685 52.9597 124.143 53.088 123.541 53.088ZM123.541 51.46C123.901 51.46 124.205 51.328 124.454 51.064C124.711 50.8 124.839 50.4223 124.839 49.931C124.839 49.4397 124.715 49.062 124.465 48.798C124.223 48.534 123.923 48.402 123.563 48.402C123.197 48.402 122.892 48.534 122.65 48.798C122.408 49.0547 122.287 49.4323 122.287 49.931C122.287 50.4223 122.405 50.8 122.639 51.064C122.881 51.328 123.182 51.46 123.541 51.46ZM130.545 53.088C129.944 53.088 129.401 52.9597 128.917 52.703C128.441 52.4463 128.063 52.0797 127.784 51.603C127.513 51.1263 127.377 50.569 127.377 49.931C127.377 49.3003 127.517 48.7467 127.795 48.27C128.074 47.786 128.455 47.4157 128.939 47.159C129.423 46.9023 129.966 46.774 130.567 46.774C131.169 46.774 131.711 46.9023 132.195 47.159C132.679 47.4157 133.061 47.786 133.339 48.27C133.618 48.7467 133.757 49.3003 133.757 49.931C133.757 50.5617 133.614 51.119 133.328 51.603C133.05 52.0797 132.665 52.4463 132.173 52.703C131.689 52.9597 131.147 53.088 130.545 53.088ZM130.545 51.46C130.905 51.46 131.209 51.328 131.458 51.064C131.715 50.8 131.843 50.4223 131.843 49.931C131.843 49.4397 131.719 49.062 131.469 48.798C131.227 48.534 130.927 48.402 130.567 48.402C130.201 48.402 129.896 48.534 129.654 48.798C129.412 49.0547 129.291 49.4323 129.291 49.931C129.291 50.4223 129.409 50.8 129.643 51.064C129.885 51.328 130.186 51.46 130.545 51.46ZM136.636 44.86V53H134.755V44.86H136.636ZM145.885 45.278V46.785H143.839V53H141.958V46.785H139.912V45.278H145.885ZM148.71 47.885C148.93 47.5477 149.205 47.2837 149.535 47.093C149.865 46.895 150.232 46.796 150.635 46.796V48.787H150.118C149.649 48.787 149.297 48.8897 149.062 49.095C148.828 49.293 148.71 49.645 148.71 50.151V53H146.829V46.862H148.71V47.885ZM157.596 46.862V53H155.715V52.164C155.524 52.4353 155.264 52.6553 154.934 52.824C154.611 52.9853 154.252 53.066 153.856 53.066C153.386 53.066 152.972 52.9633 152.613 52.758C152.253 52.5453 151.975 52.241 151.777 51.845C151.579 51.449 151.48 50.9833 151.48 50.448V46.862H153.35V50.195C153.35 50.6057 153.456 50.9247 153.669 51.152C153.881 51.3793 154.167 51.493 154.527 51.493C154.893 51.493 155.183 51.3793 155.396 51.152C155.608 50.9247 155.715 50.6057 155.715 50.195V46.862H157.596ZM161.444 53.088C160.908 53.088 160.432 52.9963 160.014 52.813C159.596 52.6297 159.266 52.3803 159.024 52.065C158.782 51.7423 158.646 51.383 158.617 50.987H160.476C160.498 51.1997 160.597 51.372 160.773 51.504C160.949 51.636 161.165 51.702 161.422 51.702C161.656 51.702 161.836 51.658 161.961 51.57C162.093 51.4747 162.159 51.3537 162.159 51.207C162.159 51.031 162.067 50.9027 161.884 50.822C161.7 50.734 161.403 50.6387 160.993 50.536C160.553 50.4333 160.186 50.327 159.893 50.217C159.599 50.0997 159.346 49.92 159.134 49.678C158.921 49.4287 158.815 49.095 158.815 48.677C158.815 48.325 158.91 48.006 159.101 47.72C159.299 47.4267 159.585 47.1957 159.959 47.027C160.34 46.8583 160.791 46.774 161.312 46.774C162.082 46.774 162.687 46.9647 163.127 47.346C163.574 47.7273 163.831 48.2333 163.897 48.864H162.159C162.129 48.6513 162.034 48.4827 161.873 48.358C161.719 48.2333 161.513 48.171 161.257 48.171C161.037 48.171 160.868 48.215 160.751 48.303C160.633 48.3837 160.575 48.4973 160.575 48.644C160.575 48.82 160.666 48.952 160.85 49.04C161.04 49.128 161.334 49.216 161.73 49.304C162.184 49.4213 162.555 49.5387 162.841 49.656C163.127 49.766 163.376 49.9493 163.589 50.206C163.809 50.4553 163.922 50.7927 163.93 51.218C163.93 51.5773 163.827 51.9 163.622 52.186C163.424 52.4647 163.134 52.6847 162.753 52.846C162.379 53.0073 161.942 53.088 161.444 53.088ZM168.501 51.405V53H167.544C166.862 53 166.331 52.835 165.949 52.505C165.568 52.1677 165.377 51.6213 165.377 50.866V48.424H164.629V46.862H165.377V45.366H167.258V46.862H168.49V48.424H167.258V50.888C167.258 51.0713 167.302 51.2033 167.39 51.284C167.478 51.3647 167.625 51.405 167.83 51.405H168.501ZM175.335 49.832C175.335 50.008 175.324 50.1913 175.302 50.382H171.045C171.075 50.7633 171.196 51.0567 171.408 51.262C171.628 51.46 171.896 51.559 172.211 51.559C172.681 51.559 173.007 51.361 173.19 50.965H175.192C175.09 51.3683 174.903 51.7313 174.631 52.054C174.367 52.3767 174.034 52.6297 173.63 52.813C173.227 52.9963 172.776 53.088 172.277 53.088C171.676 53.088 171.141 52.9597 170.671 52.703C170.202 52.4463 169.835 52.0797 169.571 51.603C169.307 51.1263 169.175 50.569 169.175 49.931C169.175 49.293 169.304 48.7357 169.56 48.259C169.824 47.7823 170.191 47.4157 170.66 47.159C171.13 46.9023 171.669 46.774 172.277 46.774C172.871 46.774 173.399 46.8987 173.861 47.148C174.323 47.3973 174.683 47.753 174.939 48.215C175.203 48.677 175.335 49.216 175.335 49.832ZM173.41 49.337C173.41 49.0143 173.3 48.7577 173.08 48.567C172.86 48.3763 172.585 48.281 172.255 48.281C171.94 48.281 171.672 48.3727 171.452 48.556C171.24 48.7393 171.108 48.9997 171.056 49.337H173.41ZM182.114 49.832C182.114 50.008 182.103 50.1913 182.081 50.382H177.824C177.853 50.7633 177.974 51.0567 178.187 51.262C178.407 51.46 178.674 51.559 178.99 51.559C179.459 51.559 179.785 51.361 179.969 50.965H181.971C181.868 51.3683 181.681 51.7313 181.41 52.054C181.146 52.3767 180.812 52.6297 180.409 52.813C180.005 52.9963 179.554 53.088 179.056 53.088C178.454 53.088 177.919 52.9597 177.45 52.703C176.98 52.4463 176.614 52.0797 176.35 51.603C176.086 51.1263 175.954 50.569 175.954 49.931C175.954 49.293 176.082 48.7357 176.339 48.259C176.603 47.7823 176.969 47.4157 177.439 47.159C177.908 46.9023 178.447 46.774 179.056 46.774C179.65 46.774 180.178 46.8987 180.64 47.148C181.102 47.3973 181.461 47.753 181.718 48.215C181.982 48.677 182.114 49.216 182.114 49.832ZM180.189 49.337C180.189 49.0143 180.079 48.7577 179.859 48.567C179.639 48.3763 179.364 48.281 179.034 48.281C178.718 48.281 178.451 48.3727 178.231 48.556C178.018 48.7393 177.886 48.9997 177.835 49.337H180.189Z" fill="white"/>
<path d="M5.46 15L3.562 11.555H3.029V15H0.806V5.874H4.537C5.25633 5.874 5.86733 5.99967 6.37 6.251C6.88133 6.50233 7.26267 6.849 7.514 7.291C7.76533 7.72433 7.891 8.20967 7.891 8.747C7.891 9.35367 7.71767 9.89533 7.371 10.372C7.033 10.8487 6.53033 11.1867 5.863 11.386L7.969 15H5.46ZM3.029 9.982H4.407C4.81433 9.982 5.11767 9.88233 5.317 9.683C5.525 9.48367 5.629 9.202 5.629 8.838C5.629 8.49133 5.525 8.21833 5.317 8.019C5.11767 7.81967 4.81433 7.72 4.407 7.72H3.029V9.982ZM11.5095 7.655V9.501H14.4865V11.217H11.5095V13.219H14.8765V15H9.28647V5.874H14.8765V7.655H11.5095ZM21.9097 9.514V11.36H16.1897V9.514H21.9097ZM26.0837 7.655V9.501H29.0607V11.217H26.0837V13.219H29.4507V15H23.8607V5.874H29.4507V7.655H26.0837ZM33.1169 13.284H36.0289V15H30.8939V5.874H33.1169V13.284ZM39.3122 7.655V9.501H42.2892V11.217H39.3122V13.219H42.6792V15H37.0892V5.874H42.6792V7.655H39.3122ZM43.7454 10.424C43.7454 9.52267 43.9404 8.721 44.3304 8.019C44.7204 7.30833 45.2621 6.758 45.9554 6.368C46.6574 5.96933 47.4504 5.77 48.3344 5.77C49.4177 5.77 50.3451 6.056 51.1164 6.628C51.8877 7.2 52.4034 7.98 52.6634 8.968H50.2194C50.0374 8.58667 49.7774 8.29633 49.4394 8.097C49.1101 7.89767 48.7331 7.798 48.3084 7.798C47.6237 7.798 47.0691 8.03633 46.6444 8.513C46.2197 8.98967 46.0074 9.62667 46.0074 10.424C46.0074 11.2213 46.2197 11.8583 46.6444 12.335C47.0691 12.8117 47.6237 13.05 48.3084 13.05C48.7331 13.05 49.1101 12.9503 49.4394 12.751C49.7774 12.5517 50.0374 12.2613 50.2194 11.88H52.6634C52.4034 12.868 51.8877 13.648 51.1164 14.22C50.3451 14.7833 49.4177 15.065 48.3344 15.065C47.4504 15.065 46.6574 14.87 45.9554 14.48C45.2621 14.0813 44.7204 13.531 44.3304 12.829C43.9404 12.127 43.7454 11.3253 43.7454 10.424ZM60.5898 5.874V7.655H58.1718V15H55.9488V7.655H53.5308V5.874H60.5898Z" fill="#F5D810"/>
<path d="M19.711 19.854V36H15.778V26.317L12.167 36H8.993L5.359 26.294V36H1.426V19.854H6.072L10.603 31.032L15.088 19.854H19.711ZM21.7573 29.56C21.7573 28.2413 22.0026 27.0837 22.4933 26.087C22.9993 25.0903 23.6816 24.3237 24.5403 23.787C25.3989 23.2503 26.3573 22.982 27.4153 22.982C28.3199 22.982 29.1096 23.166 29.7843 23.534C30.4743 23.902 31.0033 24.385 31.3713 24.983V23.166H35.3043V36H31.3713V34.183C30.9879 34.781 30.4513 35.264 29.7613 35.632C29.0866 36 28.2969 36.184 27.3923 36.184C26.3496 36.184 25.3989 35.9157 24.5403 35.379C23.6816 34.827 22.9993 34.0527 22.4933 33.056C22.0026 32.044 21.7573 30.8787 21.7573 29.56ZM31.3713 29.583C31.3713 28.6017 31.0953 27.8273 30.5433 27.26C30.0066 26.6927 29.3473 26.409 28.5653 26.409C27.7833 26.409 27.1163 26.6927 26.5643 27.26C26.0276 27.812 25.7593 28.5787 25.7593 29.56C25.7593 30.5413 26.0276 31.3233 26.5643 31.906C27.1163 32.4733 27.7833 32.757 28.5653 32.757C29.3473 32.757 30.0066 32.4733 30.5433 31.906C31.0953 31.3387 31.3713 30.5643 31.3713 29.583ZM42.0826 25.305C42.5426 24.5997 43.1176 24.0477 43.8076 23.649C44.4976 23.235 45.2643 23.028 46.1076 23.028V27.191H45.0266C44.0453 27.191 43.3093 27.4057 42.8186 27.835C42.328 28.249 42.0826 28.985 42.0826 30.043V36H38.1496V23.166H42.0826V25.305ZM49.9655 21.832C49.2755 21.832 48.7082 21.6327 48.2635 21.234C47.8342 20.82 47.6195 20.314 47.6195 19.716C47.6195 19.1027 47.8342 18.5967 48.2635 18.198C48.7082 17.784 49.2755 17.577 49.9655 17.577C50.6402 17.577 51.1922 17.784 51.6215 18.198C52.0662 18.5967 52.2885 19.1027 52.2885 19.716C52.2885 20.314 52.0662 20.82 51.6215 21.234C51.1922 21.6327 50.6402 21.832 49.9655 21.832ZM51.9205 23.166V36H47.9875V23.166H51.9205ZM58.7037 18.98V36H54.7707V18.98H58.7037ZM74.6639 23.166L66.6139 42.095H62.3819L65.3259 35.563L60.1049 23.166H64.4979L67.4649 31.193L70.4089 23.166H74.6639ZM83.9062 23.028C85.4088 23.028 86.6048 23.5187 87.4942 24.5C88.3988 25.466 88.8512 26.8 88.8512 28.502V36H84.9412V29.031C84.9412 28.1723 84.7188 27.5053 84.2742 27.03C83.8295 26.5547 83.2315 26.317 82.4802 26.317C81.7288 26.317 81.1308 26.5547 80.6862 27.03C80.2415 27.5053 80.0192 28.1723 80.0192 29.031V36H76.0862V23.166H80.0192V24.868C80.4178 24.3007 80.9545 23.856 81.6292 23.534C82.3038 23.1967 83.0628 23.028 83.9062 23.028Z" fill="white"/>
</svg>
