<svg width="44" height="33" viewBox="0 0 44 33" fill="none" xmlns="http://www.w3.org/2000/svg">
<rect x="4.4524" y="2.88092" width="13.619" height="0.52381" fill="#142344" stroke="#142344" stroke-width="0.52381"/>
<rect x="25.9286" y="2.88092" width="13.0952" height="0.52381" fill="#142344" stroke="#142344" stroke-width="0.52381"/>
<circle cx="22" cy="3.14286" r="2.88095" fill="#142344" stroke="#142344" stroke-width="0.52381"/>
<circle cx="6.80953" cy="3.14284" r="1.30952" fill="#142344" stroke="#142344" stroke-width="0.52381"/>
<path d="M20.1808 26.4524L21.2009 7.07148H22.8056L24.3357 26.4524H20.1808Z" fill="#142344" stroke="#142344" stroke-width="0.52381"/>
<circle cx="36.6666" cy="3.14284" r="1.30952" fill="#142344" stroke="#142344" stroke-width="0.52381"/>
<line x1="7.04969" y1="3.24725" x2="1.8116" y2="15.2949" stroke="#142344" stroke-width="0.52381"/>
<line x1="36.9069" y1="3.24725" x2="31.6688" y2="15.2949" stroke="#142344" stroke-width="0.52381"/>
<line y1="-0.261905" x2="13.1371" y2="-0.261905" transform="matrix(0.398726 0.91707 0.91707 -0.398726 7.33331 3.14282)" stroke="#142344" stroke-width="0.52381"/>
<line y1="-0.261905" x2="13.1371" y2="-0.261905" transform="matrix(0.398726 0.91707 0.91707 -0.398726 37.1905 3.14282)" stroke="#142344" stroke-width="0.52381"/>
<path d="M18.0876 30.119C18.1703 29.4523 18.5667 28.8386 19.194 28.3681C19.9028 27.8365 20.894 27.4999 22 27.4999C23.106 27.4999 24.0972 27.8365 24.806 28.3681C25.4333 28.8386 25.8296 29.4523 25.9124 30.119H18.0876Z" fill="#142344" stroke="#142344" stroke-width="0.52381"/>
<path d="M30.6542 14.4048C30.7483 15.496 31.4275 16.5016 32.5245 17.2611C33.7078 18.0802 35.3566 18.5953 37.1905 18.5953C39.0244 18.5953 40.6732 18.0802 41.8565 17.2611C42.9535 16.5016 43.6327 15.496 43.7269 14.4048H30.6542Z" fill="#142344" stroke="#142344" stroke-width="0.52381"/>
<path d="M0.273176 14.4048C0.367304 15.496 1.04652 16.5016 2.14354 17.2611C3.32679 18.0802 4.97566 18.5953 6.80952 18.5953C8.64339 18.5953 10.2923 18.0802 11.4755 17.2611C12.5725 16.5016 13.2517 15.496 13.3459 14.4048H0.273176Z" fill="#142344" stroke="#142344" stroke-width="0.52381"/>
<circle cx="6.80952" cy="3.14289" r="0.523809" fill="#F5D810" stroke="#142344" stroke-width="0.52381"/>
<circle cx="36.6667" cy="3.14289" r="0.523809" fill="#F5D810" stroke="#142344" stroke-width="0.52381"/>
<path d="M13.0952 29.5953H30.9048C31.3387 29.5953 31.6905 29.9471 31.6905 30.381V32.2143H12.3095V30.381C12.3095 29.9471 12.6613 29.5953 13.0952 29.5953Z" fill="#142344" stroke="#142344" stroke-width="0.52381"/>
<path d="M21.2277 22.7858L21.9872 7.59528H22.0209L23.2868 22.7858H21.2277Z" fill="#142344" stroke="#142344" stroke-width="0.52381"/>
</svg>
