<svg width="25" height="25" viewBox="0 0 25 25" fill="none" xmlns="http://www.w3.org/2000/svg">
<path d="M14.4151 1.84683V2.66026C14.4151 3.1878 14.7706 3.64458 15.2786 3.78653C19.0637 4.8438 21.8369 8.3147 21.8369 12.4398C21.8369 17.4051 17.8186 21.4242 12.8526 21.4242C7.88728 21.4242 3.86819 17.4059 3.86819 12.4398C3.86819 8.31529 6.64094 4.8439 10.4264 3.78653C10.9345 3.64458 11.2901 3.1877 11.2901 2.66011V1.84722C11.2901 1.08018 10.5657 0.521389 9.82297 0.712747C4.58122 2.06294 0.713598 6.83462 0.743334 12.5048C0.778491 19.1968 6.18655 24.5632 12.8786 24.5491C19.5545 24.5351 24.9619 19.1189 24.9619 12.4398C24.9619 6.79366 21.0977 2.0502 15.8696 0.709524C15.1318 0.520315 14.4151 1.08511 14.4151 1.84683Z" fill="white"/>
</svg>
