<svg width="18" height="18" viewBox="0 0 18 18" fill="none" xmlns="http://www.w3.org/2000/svg">
<path d="M12.097 8.77139L16.9833 3.88516C17.5829 3.28555 17.5829 2.31338 16.9833 1.71329L15.8973 0.62735C15.2977 0.0277405 14.3256 0.0277405 13.7255 0.62735L8.83923 5.51358L3.953 0.62735C3.35339 0.0277405 2.38123 0.0277405 1.78113 0.62735L0.69519 1.71329C0.0955811 2.3129 0.0955811 3.28506 0.69519 3.88516L5.58142 8.77139L0.69519 13.6576C0.0955811 14.2572 0.0955811 15.2294 0.69519 15.8295L1.78113 16.9154C2.38074 17.515 3.35339 17.515 3.953 16.9154L8.83923 12.0292L13.7255 16.9154C14.3251 17.515 15.2977 17.515 15.8973 16.9154L16.9833 15.8295C17.5829 15.2299 17.5829 14.2577 16.9833 13.6576L12.097 8.77139Z" fill="white"/>
</svg>
